<svg width="512" height="512" viewBox="0 0 512 512" fill="none" xmlns="http://www.w3.org/2000/svg">
<rect width="512" height="512" fill="white"/>
<path d="M200.654 305.267V332H103.456V305.267H200.654ZM198.408 179.238V206.121H106.9V179.238H198.408ZM171.899 254.795V256.368L116.935 332H91.0999V316.275L137.453 255.619L91.0999 195.114V179.238H116.935L171.899 254.795ZM296.411 171.45L246.988 355.064H219.506L268.929 171.45H296.411ZM369.89 332L395.051 178.639H419.013L393.853 332H369.89ZM301.222 293.959L305.191 269.997H425.004L421.035 293.959H301.222ZM315.974 332L341.135 178.639H365.098L339.937 332H315.974ZM309.983 240.642L314.027 216.68H433.84L429.797 240.642H309.983Z" fill="black"/>
</svg>
